# xmcd
#
# Track frame offsets: 
#        150
#        28994
#        79914
#        109731
#        132013
#        155289
#        169695
#        187183
#        202618
#        220302
#
# Disc length: 3232 seconds
#
# Revision: 1
# Processed by: cddbd v1.5.2PL0 Copyright (c) Steve Scherf et al.
# Submitted via: ExactAudioCopy v0.99pb4
#
DISCID=830c9e0a
DTITLE=George Thorogood and the Destroyers - Best Of
DYEAR=2006
DGENRE=Blues
TTITLE0=Bad to the bone
TTITLE1=One Bourbon, One Scotch, One Beer
TTITLE2=Who Do You Love
TTITLE3=Move It On Over
TTITLE4=I Drink Alone
TTITLE5=Double Shot
TTITLE6=99 Days in Jail
TTITLE7=Half A Boy And Half A Man
TTITLE8=As Long As I Have You
TTITLE9=Hellbound Train
EXTD=YEAR: 2006
EXTT0=
EXTT1=
EXTT2=
EXTT3=
EXTT4=
EXTT5=
EXTT6=
EXTT7=
EXTT8=
EXTT9=
PLAYORDER=
